<svg xmlns="http://www.w3.org/2000/svg" viewBox="0 0 256 256" role="img" aria-labelledby="title desc">
  <title id="title">ALLIM A Q favicon</title>
  <desc id="desc">The first ALLIM letter A with the Q cutout, simplified for app icons and favicons.</desc>
  <defs>
    <mask id="aq-mask" maskUnits="userSpaceOnUse" x="42" y="32" width="172" height="190">
      <rect x="42" y="32" width="172" height="190" fill="#000"/>
      <path d="M92 45Q87 45 86 51L57 204Q56 211 63 211H103L108 188H148L153 211H193Q200 211 199 204L170 51Q169 45 164 45Z" fill="#fff"/>
      <path d="M128 62C116 62 110 70 110 84V137C110 155 116 165 128 165C140 165 146 155 146 137V84C146 70 140 62 128 62ZM131 154L146 174" fill="none" stroke="#000" stroke-width="12" stroke-linecap="butt" stroke-linejoin="round"/>
      <path d="M111 211L116 188H140L145 211Z" fill="#000"/>
    </mask>
  </defs>
  <rect width="256" height="256" rx="56" fill="#0A0B0B"/>
  <rect x="42" y="32" width="172" height="190" fill="#F4F3EE" mask="url(#aq-mask)"/>
</svg>
