<svg xmlns="http://www.w3.org/2000/svg" viewBox="0 0 160 160" role="img" aria-labelledby="title desc">
  <title id="title">ALLIM Hadith Embrace symbol</title>
  <desc id="desc">Two open ribbons embrace an open Book and cross beneath a single point of transmitted knowledge.</desc>
  <defs>
    <linearGradient id="left" x1="30" y1="24" x2="124" y2="138" gradientUnits="userSpaceOnUse">
      <stop stop-color="#78FF9F"/>
      <stop offset="1" stop-color="#35F3BD"/>
    </linearGradient>
    <linearGradient id="right" x1="130" y1="24" x2="36" y2="138" gradientUnits="userSpaceOnUse">
      <stop stop-color="#57F6A6"/>
      <stop offset="1" stop-color="#62E8FF"/>
    </linearGradient>
  </defs>
  <path d="M49 25C28 35 18 55 22 78C27 106 49 124 77 132C91 136 106 137 126 129" fill="none" stroke="url(#left)" stroke-width="14" stroke-linecap="round"/>
  <path d="M111 25C132 35 142 55 138 78C133 106 111 124 83 132C69 136 54 137 34 129" fill="none" stroke="url(#right)" stroke-width="14" stroke-linecap="round"/>
  <path d="M45 49C58 49 70 53 80 61C90 53 102 49 115 49V94C101 94 89 100 80 109C71 100 59 94 45 94V49Z" fill="none" stroke="#F3F6F0" stroke-width="8" stroke-linejoin="round"/>
  <path d="M80 62V101" fill="none" stroke="#B9FFE1" stroke-width="3" stroke-linecap="round"/>
  <circle cx="80" cy="115" r="4.5" fill="#62E8FF"/>
</svg>
